# xmcd
#
# Track frame offsets: 
#        150
#        5542
#        18864
#        30372
#        49302
#        65248
#        76404
#        86219
#        100647
#        119721
#        133154
#        151007
#        170595
#        185636
#
# Disc length: 3737 seconds
#
# Revision: 1
# Processed by: cddbd v1.5.2PL0 Copyright (c) Steve Scherf et al.
# Submitted via: ExactAudioCopy v0.95b3
#
DISCID=b70e970e
DTITLE=Кооператив Ништяк - Памяти Дика
DYEAR=2001
DGENRE=Punk
TTITLE0=Молодость
TTITLE1=Песня № 02 ("С детства учили, что есть беднее нас")
TTITLE2=Песня № 03 ("Если я пожелтею и китайцем безумным стану")
TTITLE3=Песня № 04 ("Когда я вернусь домой")
TTITLE4=Песня № 05 ("А на рассвете звезды утащат в небо тебя")
TTITLE5=Песня № 06 ("В коллекциях античного мрамора")
TTITLE6=Песня № 07 ("Мы открыли глаза, а небо уже так низко над голово
TTITLE6=й")
TTITLE7=Песня № 08 ("Долина Долгих Дождей... Какая дождливая нынче вес
TTITLE7=на")
TTITLE8=Песня № 09 ("Умерший Моцарт в глинтвейне топит могильные будни
TTITLE8=")
TTITLE9=Песня № 10 ("Чтоб построить колонны из мрамора")
TTITLE10=Песня № 11 ("А вместо меня - песок, а вместо тебя - сухая лис
TTITLE10=тва")
TTITLE11=Песня № 12 ("По мокрому снегу ослицы бредут не спеша")
TTITLE12=Гауф
TTITLE13=Винтер
EXTD=
EXTT0=
EXTT1=
EXTT2=
EXTT3=
EXTT4=
EXTT5=
EXTT6=
EXTT7=
EXTT8=
EXTT9=
EXTT10=
EXTT11=
EXTT12=
EXTT13=
PLAYORDER=
